<?xml version="1.0" encoding="UTF-8" standalone="no"?>
<svg width="128px" height="24px" viewBox="0 0 128 24" version="1.1" xmlns="http://www.w3.org/2000/svg" xmlns:xlink="http://www.w3.org/1999/xlink" xmlns:sketch="http://www.bohemiancoding.com/sketch/ns">
    <!-- Generator: Sketch Beta 3.1.1 (8761) - http://www.bohemiancoding.com/sketch -->
    <title>Imported Layers + Developers</title>
    <desc>Created with Sketch Beta.</desc>
    <defs>
        <filter x="-50%" y="-50%" width="200%" height="200%" filterUnits="objectBoundingBox" id="filter-1">
            <feOffset dx="0" dy="2" in="SourceAlpha" result="shadowOffsetOuter1"></feOffset>
            <feGaussianBlur stdDeviation="1" in="shadowOffsetOuter1" result="shadowBlurOuter1"></feGaussianBlur>
            <feColorMatrix values="0 0 0 0 0   0 0 0 0 0   0 0 0 0 0  0 0 0 0.35 0" in="shadowBlurOuter1" type="matrix" result="shadowMatrixOuter1"></feColorMatrix>
            <feMerge>
                <feMergeNode in="shadowMatrixOuter1"></feMergeNode>
                <feMergeNode in="SourceGraphic"></feMergeNode>
            </feMerge>
        </filter>
        <filter x="-50%" y="-50%" width="200%" height="200%" filterUnits="objectBoundingBox" id="filter-2">
            <feOffset dx="0" dy="2" in="SourceAlpha" result="shadowOffsetOuter1"></feOffset>
            <feGaussianBlur stdDeviation="2" in="shadowOffsetOuter1" result="shadowBlurOuter1"></feGaussianBlur>
            <feColorMatrix values="0 0 0 0 0   0 0 0 0 0   0 0 0 0 0  0 0 0 0.35 0" in="shadowBlurOuter1" type="matrix" result="shadowMatrixOuter1"></feColorMatrix>
            <feMerge>
                <feMergeNode in="shadowMatrixOuter1"></feMergeNode>
                <feMergeNode in="SourceGraphic"></feMergeNode>
            </feMerge>
        </filter>
    </defs>
    <g id="Page-1" stroke="none" stroke-width="1" fill="none" fill-rule="evenodd" sketch:type="MSPage">
        <g id="header" sketch:type="MSArtboardGroup" transform="translate(-9.000000, -337.000000)" fill="#DDDDDD">
            <g id="GNB-Login/Active-3" sketch:type="MSLayerGroup" transform="translate(0.000000, 320.000000)">
                <g id="Imported-Layers-+-Developers" transform="translate(11.000000, 17.000000)" sketch:type="MSShapeGroup">
                    <path d="M36.9309429,2.68482574 C35.7030394,2.68482574 34.5756914,3.10241287 33.6975648,3.79485255 C32.8195466,3.10241287 31.6918735,2.68482574 30.4639699,2.68482574 C29.3872247,2.68482574 28.390447,3.00772118 27.5684495,3.55356568 C26.2562441,4.42530831 26.2562441,4.42509383 27.5684495,3.55356568 L27.5684495,0 L23.8950329,0 L23.8950329,5.90252011 C23.8950329,6.87796247 23.0597074,7.670563 22.0335649,7.670563 C21.0073141,7.670563 20.1717719,6.87796247 20.1717719,5.90252011 L20.1717719,0 L16.498572,0 L16.498572,5.88364611 C15.9389072,5.71420912 15.3440263,5.62144772 14.7260653,5.62144772 C13.4080086,5.62144772 12.1947333,6.04289544 11.2158346,6.74455764 C11.2558184,6.88182306 11.2558184,6.88182306 11.2157262,6.74455764 C10.5095625,4.32793566 8.17966652,2.54616622 5.41449974,2.54616622 L0,2.54616622 L0,13.9968901 L5.41449974,13.9968901 C6.78857709,13.9968901 8.05267191,13.5529223 9.06711179,12.8145845 C10.5065285,11.7672922 10.5066369,11.7675067 9.06722015,12.8145845 C9.7112952,15.2164075 12.0004489,17 14.7260653,17 C16.0041382,17 17.1841479,16.6043968 18.1472264,15.9402681 C18.6974642,16.4125469 19.4759021,16.7189276 20.571935,16.8751743 L20.571935,11.5587131 C20.571935,11.5587131 20.5634831,11.035067 20.5609909,10.9657909 C21.0308276,11.0889008 21.5228776,11.1605362 22.0335649,11.1605362 C23.2982015,11.1605362 24.4614158,10.7510992 25.3944795,10.0700268 L25.3944795,13.9968901 L29.0677877,13.9968901 L29.0677877,7.50091153 C29.0677877,6.76986595 29.6938755,6.1750134 30.4639699,6.1750134 C31.2341728,6.1750134 31.8608023,6.76986595 31.8608023,7.50091153 L31.8608023,13.9968901 L35.5341106,13.9968901 L35.5341106,7.50091153 C35.5341106,6.76986595 36.1607401,6.1750134 36.9309429,6.1750134 C37.7003872,6.1750134 38.3271252,6.76986595 38.3271252,7.50091153 L38.3271252,13.9968901 L42,13.9968901 L42,7.50091153 C42,4.84568365 39.7257996,2.68482574 36.9309429,2.68482574 L36.9309429,2.68482574 Z M5.59393512,10.7368421 L3.65217391,10.7368421 L3.65217391,6.26315789 L5.59393512,6.26315789 C7.04070915,6.26315789 8.2173913,7.26693308 8.2173913,8.50091223 C8.2173913,9.73360353 7.04070915,10.7368421 5.59393512,10.7368421 L5.59393512,10.7368421 Z M17.3478261,11.3227827 C17.3478261,12.479896 16.3239734,13.4210526 15.0652743,13.4210526 C13.8066891,13.4210526 12.7826087,12.479896 12.7826087,11.3227827 L12.7826087,11.0456383 C12.7826087,9.88852504 13.8066891,8.94736842 15.0652743,8.94736842 C16.3239734,8.94736842 17.3478261,9.88852504 17.3478261,11.0456383 L17.3478261,11.3227827 L17.3478261,11.3227827 Z" id="Imported-Layers" filter="url(#filter-1)"></path>
                    <path d="M51.3738843,3.0859375 C52.5093067,3.0859375 53.5197132,3.31770602 54.4051343,3.78125 C55.2905554,4.24479398 55.9780485,4.89582914 56.4676343,5.734375 C56.9572201,6.57292086 57.2020093,7.51561977 57.2020093,8.5625 C57.2020093,9.63021367 56.955918,10.5768188 56.4637281,11.4023438 C55.9715381,12.2278687 55.2723264,12.8671852 54.3660718,13.3203125 C53.4598173,13.7734398 52.4207652,14 51.2488843,14 L46.8035718,14 L46.8035718,3.0859375 L51.3738843,3.0859375 Z M51.1551343,12.3515625 C52.3218068,12.3515625 53.2579954,12.0013056 53.9637281,11.3007812 C54.6694608,10.6002569 55.0223218,9.68229734 55.0223218,8.546875 C55.0223218,7.36978578 54.6668566,6.44010758 53.9559156,5.7578125 C53.2449745,5.07551742 52.2879528,4.734375 51.0848218,4.734375 L48.9129468,4.734375 L48.9129468,12.3515625 L51.1551343,12.3515625 Z M61.8513396,6.5625 C62.9242617,6.5625 63.7732115,6.90624656 64.3982146,7.59375 C65.0232178,8.28125344 65.3357146,9.23176477 65.3357146,10.4453125 L65.3357146,10.734375 L60.1716521,10.734375 C60.2497775,11.3854199 60.4932647,11.886717 60.9021209,12.2382812 C61.3109771,12.5898455 61.8721694,12.765625 62.5857146,12.765625 C63.0440503,12.765625 63.4854521,12.6861987 63.9099334,12.5273438 C64.3344147,12.3684888 64.7732124,12.1276058 65.2263396,11.8046875 L65.2263396,13.234375 C64.3721687,13.8385447 63.3357207,14.140625 62.1169646,14.140625 C60.9659172,14.140625 60.0258225,13.7942743 59.2966521,13.1015625 C58.5674818,12.4088507 58.2029021,11.4869849 58.2029021,10.3359375 C58.2029021,9.22655695 58.5401383,8.32031602 59.2146209,7.6171875 C59.8891034,6.91405898 60.7680009,6.5625 61.8513396,6.5625 L61.8513396,6.5625 Z M63.5310271,9.5703125 C63.4789435,9.03905984 63.3174868,8.62369941 63.0466521,8.32421875 C62.7758175,8.02473809 62.4034253,7.875 61.9294646,7.875 C61.4450872,7.875 61.0557682,8.01822773 60.7614959,8.3046875 C60.4672236,8.59114727 60.2810275,9.01301805 60.2029021,9.5703125 L63.5310271,9.5703125 Z M67.6334825,6.703125 L69.3834825,10.9296875 L71.09442,6.703125 L73.141295,6.703125 L69.84442,14.140625 L68.9147325,14.140625 L65.5709825,6.703125 L67.6334825,6.703125 Z M77.0562503,6.5625 C78.1291723,6.5625 78.9781221,6.90624656 79.6031253,7.59375 C80.2281284,8.28125344 80.5406253,9.23176477 80.5406253,10.4453125 L80.5406253,10.734375 L75.3765628,10.734375 C75.4546882,11.3854199 75.6981753,11.886717 76.1070315,12.2382812 C76.5158877,12.5898455 77.07708,12.765625 77.7906253,12.765625 C78.2489609,12.765625 78.6903627,12.6861987 79.114844,12.5273438 C79.5393253,12.3684888 79.978123,12.1276058 80.4312503,11.8046875 L80.4312503,13.234375 C79.5770793,13.8385447 78.5406314,14.140625 77.3218753,14.140625 C76.1708279,14.140625 75.2307331,13.7942743 74.5015628,13.1015625 C73.7723925,12.4088507 73.4078128,11.4869849 73.4078128,10.3359375 C73.4078128,9.22655695 73.745049,8.32031602 74.4195315,7.6171875 C75.0940141,6.91405898 75.9729115,6.5625 77.0562503,6.5625 L77.0562503,6.5625 Z M78.7359378,9.5703125 C78.6838542,9.03905984 78.5223975,8.62369941 78.2515628,8.32421875 C77.9807281,8.02473809 77.608336,7.875 77.1343753,7.875 C76.6499979,7.875 76.2606788,8.01822773 75.9664065,8.3046875 C75.6721342,8.59114727 75.4859382,9.01301805 75.4078128,9.5703125 L78.7359378,9.5703125 Z M83.6899556,3.0859375 L83.6899556,14 L81.7680806,14 L81.7680806,3.0859375 L83.6899556,3.0859375 Z M88.9486609,6.5625 C89.7090814,6.5625 90.3991786,6.72135258 91.0189734,7.0390625 C91.6387682,7.35677242 92.1179301,7.80208047 92.4564734,8.375 C92.7950168,8.94791953 92.9642859,9.59635055 92.9642859,10.3203125 C92.9642859,11.0755246 92.8015271,11.7369763 92.4760047,12.3046875 C92.1504822,12.8723987 91.6713203,13.3203109 91.0385047,13.6484375 C90.405689,13.9765641 89.7090814,14.140625 88.9486609,14.140625 C88.1830321,14.140625 87.4877265,13.9765641 86.8627234,13.6484375 C86.2377203,13.3203109 85.7624646,12.8723987 85.4369422,12.3046875 C85.1114197,11.7369763 84.9486609,11.0755246 84.9486609,10.3203125 C84.9486609,9.58593383 85.1205342,8.9335966 85.4642859,8.36328125 C85.8080376,7.7929659 86.2871995,7.35026199 86.9017859,7.03515625 C87.5163723,6.72005051 88.1986572,6.5625 88.9486609,6.5625 L88.9486609,6.5625 Z M86.9642859,10.3203125 C86.9642859,11.0494828 87.1426695,11.6315082 87.4994422,12.0664062 C87.8562148,12.5013043 88.3340746,12.71875 88.9330359,12.71875 C89.558039,12.71875 90.0502216,12.5104187 90.4095984,12.09375 C90.7689752,11.6770813 90.9486609,11.080733 90.9486609,10.3046875 C90.9486609,9.56510047 90.7676731,8.9934916 90.4056922,8.58984375 C90.0437112,8.1861959 89.5528307,7.984375 88.9330359,7.984375 C88.3496997,7.984375 87.8757461,8.19791453 87.5111609,8.625 C87.1465758,9.05208547 86.9642859,9.61718398 86.9642859,10.3203125 L86.9642859,10.3203125 Z M97.9183037,6.5625 C98.9599756,6.5625 99.799811,6.91145484 100.437835,7.609375 C101.075859,8.30729516 101.394866,9.21614023 101.394866,10.3359375 C101.394866,11.0703162 101.245128,11.7265596 100.945647,12.3046875 C100.646167,12.8828154 100.22039,13.3333317 99.6683037,13.65625 C99.1162176,13.9791683 98.4912239,14.140625 97.7933037,14.140625 C97.2255926,14.140625 96.6552858,13.9973973 96.0823662,13.7109375 L96.0823662,17.6796875 L94.1604912,17.6796875 L94.1604912,6.703125 L96.0667412,6.703125 L96.0667412,7.171875 C96.6448691,6.76562297 97.2620504,6.5625 97.9183037,6.5625 L97.9183037,6.5625 Z M96.0823662,12.3046875 C96.5615353,12.5807305 97.0094475,12.71875 97.4261162,12.71875 C98.0302859,12.71875 98.5146561,12.5026063 98.8792412,12.0703125 C99.2438264,11.6380187 99.4261162,11.0807326 99.4261162,10.3984375 C99.4261162,9.65364211 99.2633574,9.07031461 98.937835,8.6484375 C98.6123125,8.22656039 98.1500776,8.015625 97.5511162,8.015625 C97.3271568,8.015625 97.1110131,8.05338504 96.9026787,8.12890625 C96.6943444,8.20442746 96.4209096,8.36458211 96.0823662,8.609375 L96.0823662,12.3046875 Z M105.848884,6.5625 C106.921806,6.5625 107.770756,6.90624656 108.395759,7.59375 C109.020762,8.28125344 109.333259,9.23176477 109.333259,10.4453125 L109.333259,10.734375 L104.169197,10.734375 C104.247322,11.3854199 104.490809,11.886717 104.899665,12.2382812 C105.308522,12.5898455 105.869714,12.765625 106.583259,12.765625 C107.041595,12.765625 107.482997,12.6861987 107.907478,12.5273438 C108.331959,12.3684888 108.770757,12.1276058 109.223884,11.8046875 L109.223884,13.234375 C108.369713,13.8385447 107.333265,14.140625 106.114509,14.140625 C104.963462,14.140625 104.023367,13.7942743 103.294197,13.1015625 C102.565026,12.4088507 102.200447,11.4869849 102.200447,10.3359375 C102.200447,9.22655695 102.537683,8.32031602 103.212165,7.6171875 C103.886648,6.91405898 104.765545,6.5625 105.848884,6.5625 L105.848884,6.5625 Z M107.528572,9.5703125 C107.476488,9.03905984 107.315031,8.62369941 107.044197,8.32421875 C106.773362,8.02473809 106.40097,7.875 105.927009,7.875 C105.442632,7.875 105.053313,8.01822773 104.75904,8.3046875 C104.464768,8.59114727 104.278572,9.01301805 104.200447,9.5703125 L107.528572,9.5703125 Z M114.670089,6.5625 C114.925299,6.5625 115.176599,6.61979109 115.423996,6.734375 C115.671393,6.84895891 115.95915,7.04166531 116.287277,7.3125 L115.599777,8.9921875 C115.042482,8.57551875 114.59457,8.3671875 114.256027,8.3671875 C113.95915,8.3671875 113.666185,8.47786348 113.377121,8.69921875 C113.088057,8.92057402 112.856288,9.21353984 112.681808,9.578125 C112.507328,9.94271016 112.420089,10.3072898 112.420089,10.671875 L112.420089,14 L110.498214,14 L110.498214,6.703125 L112.420089,6.703125 L112.420089,8.5625 L112.451339,8.5625 C112.800299,7.85937148 113.151858,7.35026199 113.506027,7.03515625 C113.860195,6.72005051 114.248212,6.5625 114.670089,6.5625 L114.670089,6.5625 Z M119.210045,6.5625 C119.611088,6.5625 119.988689,6.60807246 120.342857,6.69921875 C120.697026,6.79036504 121.072022,6.93489484 121.467857,7.1328125 L121.467857,8.671875 C121.103272,8.43749883 120.712651,8.24869863 120.295982,8.10546875 C119.879313,7.96223887 119.506921,7.890625 119.178795,7.890625 C118.902752,7.890625 118.686608,7.94270781 118.530357,8.046875 C118.374106,8.15104219 118.295982,8.2994782 118.295982,8.4921875 C118.295982,8.60156305 118.361086,8.71093695 118.491295,8.8203125 C118.621504,8.92968805 118.978271,9.13020687 119.561607,9.421875 C120.394945,9.84375211 120.979574,10.2330711 121.315513,10.5898438 C121.651453,10.9466164 121.81942,11.3749975 121.81942,11.875 C121.81942,12.5781285 121.57463,13.1315084 121.085045,13.5351562 C120.595459,13.9388041 119.934007,14.140625 119.10067,14.140625 C118.579834,14.140625 118.094162,14.0833339 117.643638,13.96875 C117.193115,13.8541661 116.819421,13.7161466 116.522545,13.5546875 L116.522545,11.953125 C117.460049,12.4739609 118.249104,12.734375 118.889732,12.734375 C119.217859,12.734375 119.483481,12.6757818 119.686607,12.5585938 C119.889733,12.4414057 119.991295,12.2864593 119.991295,12.09375 C119.991295,11.9791661 119.954837,11.8750005 119.88192,11.78125 C119.809003,11.6874995 119.699629,11.5911463 119.553795,11.4921875 C119.407961,11.3932287 118.952236,11.1562519 118.186607,10.78125 C117.598063,10.4999986 117.163171,10.1940121 116.88192,9.86328125 C116.600668,9.53255043 116.460045,9.14062727 116.460045,8.6875 C116.460045,8.04166344 116.712646,7.52604359 117.217857,7.140625 C117.723068,6.75520641 118.387124,6.5625 119.210045,6.5625 L119.210045,6.5625 Z" id="Developers" filter="url(#filter-2)"></path>
                </g>
            </g>
        </g>
    </g>
</svg>